# ProBuilder 4.2.3
# https://unity3d.com/unity/features/worldbuilding/probuilder
# 2020-09-01 PM 5:01:22

mtllib ./vest_motor_10.mtl
o vest_motor_10

g vest_motor_10
v 1.896356E-10 0.005 1.219962E-09
v 0.002763945 0.005000005 0.001866903
v 0.002466619 0.004999985 0.05100027
v -0.0003607645 0.004999996 0.05358474
v -0.05388711 0.004999992 0.04490389
v -0.05332139 0.005000003 0.01640192
v -0.05332139 2.793968E-09 0.01640192
v -0.0003607647 -3.72529E-09 0.05358474
v -0.05388711 -7.450581E-09 0.04490389
v 0.002466618 -1.490116E-08 0.05100027
v 0 0 0
v 0.002763944 5.355105E-09 0.001866902

vt 0.3822438 0.4692895
vt 0.3794799 0.4711564
vt 0.3797772 0.5202898
vt 0.3826046 0.5228742
vt 0.4361309 0.5141934
vt 0.4355652 0.4856914
vt 0.3289225 0.4856914
vt 0.3818831 0.5228742
vt 0.3283567 0.5141934
vt 0.3847105 0.5202898
vt 0.3850078 0.4711564
vt 0.390466 0.4692895
vt 0.3362403 0.4692895
vt 0.390466 0.4742895
vt 0.3362403 0.4742895
vt 0.4282083 0.4692895
vt 0.3997007 0.4692895
vt 0.4282083 0.4742895
vt 0.3997007 0.4742895
vt 0.3496552 0.4692895
vt 0.3458245 0.4692895
vt 0.3496552 0.4742895
vt 0.3458245 0.4742895
vt 0.4380309 0.4692895
vt 0.4380309 0.4742895
vt 0.3822438 0.4742895
vt 0.3789085 0.4692895
vt 0.3789085 0.4742895
vt 0.3803937 0.4692895
vt 0.3312594 0.4692895
vt 0.3803937 0.4742895
vt 0.3312594 0.4742895

vn -1.076914E-06 1 3.442628E-07
vn -5.998149E-07 -1 5.757572E-07
vn -0.1600874 6.522821E-09 0.9871029
vn -0.9998031 0 -0.01984476
vn 0.6746885 -3.141763E-08 0.7381026
vn -0.2940096 3.560642E-07 -0.9558025
vn 0.5597281 1.809619E-07 -0.8286763
vn 0.9999817 -4.79742E-08 0.006051298

usemtl ProBuilderDefault
f 5/5/1 4/4/1 6/6/1
f 4/4/1 3/3/1 6/6/1
f 3/3/1 1/1/1 6/6/1
f 3/3/1 2/2/1 1/1/1
f 11/1/2 12/11/2 10/10/2
f 7/7/2 11/1/2 10/10/2
f 7/7/2 10/10/2 8/8/2
f 7/7/2 8/8/2 9/9/2
f 5/15/3 9/13/3 8/12/3
f 8/12/3 4/14/3 5/15/3
f 6/19/4 7/17/4 9/16/4
f 9/16/4 5/18/4 6/19/4
f 4/23/5 8/21/5 10/20/5
f 10/20/5 3/22/5 4/23/5
f 1/26/6 11/1/6 7/24/6
f 7/24/6 6/25/6 1/26/6
f 2/28/7 12/27/7 11/1/7
f 11/1/7 1/26/7 2/28/7
f 3/32/8 10/30/8 12/29/8
f 12/29/8 2/31/8 3/32/8

