# ProBuilder 4.2.3
# https://unity3d.com/unity/features/worldbuilding/probuilder
# 2020-09-01 PM 5:21:44

mtllib ./vest_motor_6.mtl
o vest_motor_6

g vest_motor_6
v -4.237767E-10 0.005 8.094603E-10
v 0.05057393 0.005000007 -0.01954493
v 0.05105365 0.005000015 -0.07347535
v 0.0002426872 0.005000008 -0.07043656
v 0 0 0
v 0.0002426897 5.17196E-09 -0.07043657
v 0.05057393 7.450581E-09 -0.01954493
v 0.05105365 1.328234E-08 -0.07347535

vt 0.3784593 0.7436724
vt 0.3278853 0.7241275
vt 0.3274056 0.6701971
vt 0.3782166 0.6732359
vt 0.378702 0.6732359
vt 0.4290332 0.7241275
vt 0.4295129 0.6701971
vt 0.3080223 0.7436724
vt 0.3784593 0.7486724
vt 0.3080223 0.7486724
vt 0.4326785 0.7436724
vt 0.4326785 0.7486724
vt 0.374012 0.7436723
vt 0.3231103 0.7436724
vt 0.374012 0.7486724
vt 0.3231103 0.7486724
vt 0.4523858 0.7436724
vt 0.3984533 0.7436724
vt 0.4523858 0.7486724
vt 0.3984533 0.7486724

vn -1.014669E-07 1 1.186497E-07
vn 1.191023E-07 -1 -7.301682E-08
vn -0.999994 -8.419703E-08 -0.003445487
vn 0.3604796 0 0.9327671
vn -0.05969906 1.457052E-06 -0.9982165
vn 0.9999604 0 0.008894893

usemtl ProBuilderDefault
f 2/2/1 3/3/1 4/4/1 1/1/1
f 5/1/2 6/5/2 8/7/2 7/6/2
f 1/9/3 4/10/3 6/8/3 5/1/3
f 2/12/4 1/9/4 5/1/4 7/11/4
f 4/15/5 3/16/5 8/14/5 6/13/5
f 3/19/6 2/20/6 7/18/6 8/17/6

