# ProBuilder 4.2.3
# https://unity3d.com/unity/features/worldbuilding/probuilder
# 2020-09-01 PM 5:01:24

mtllib ./vest_motor_11.mtl
o vest_motor_11

g vest_motor_11
v 1.896356E-10 0.005 1.219962E-09
v 0.002763945 0.005000005 0.001866903
v 0.002466619 0.004999985 0.05100027
v -0.0003607645 0.004999996 0.05358474
v -0.05388711 0.004999992 0.04490389
v -0.05332139 0.005000003 0.01640192
v -0.05332139 2.793968E-09 0.01640192
v -0.0003607647 -3.72529E-09 0.05358474
v -0.05388711 -7.450581E-09 0.04490389
v 0.002466618 -1.490116E-08 0.05100027
v 0 0 0
v 0.002763944 5.355105E-09 0.001866902

vt 0.6320269 0.4711818
vt 0.629263 0.4730487
vt 0.6295603 0.5221821
vt 0.6323877 0.5247666
vt 0.685914 0.5160857
vt 0.6853483 0.4875837
vt 0.5787055 0.4875837
vt 0.6316661 0.5247666
vt 0.5781398 0.5160857
vt 0.6344935 0.5221821
vt 0.6347908 0.4730487
vt 0.640249 0.4711818
vt 0.5860233 0.4711818
vt 0.640249 0.4761818
vt 0.5860233 0.4761818
vt 0.6779913 0.4711818
vt 0.6494837 0.4711818
vt 0.6779913 0.4761818
vt 0.6494837 0.4761818
vt 0.5994383 0.4711818
vt 0.5956076 0.4711818
vt 0.5994383 0.4761818
vt 0.5956076 0.4761818
vt 0.6878139 0.4711818
vt 0.6878139 0.4761818
vt 0.6320269 0.4761818
vt 0.6286916 0.4711818
vt 0.6286916 0.4761818
vt 0.6301768 0.4711818
vt 0.5810425 0.4711818
vt 0.6301768 0.4761818
vt 0.5810425 0.4761818

vn -1.076914E-06 1 3.442628E-07
vn -5.998149E-07 -1 5.757572E-07
vn -0.1600874 6.522821E-09 0.9871029
vn -0.9998031 0 -0.01984476
vn 0.6746885 -3.141763E-08 0.7381026
vn -0.2940096 3.560642E-07 -0.9558025
vn 0.5597281 1.809619E-07 -0.8286763
vn 0.9999817 -4.79742E-08 0.006051298

usemtl ProBuilderDefault
f 5/5/1 4/4/1 6/6/1
f 4/4/1 3/3/1 6/6/1
f 3/3/1 1/1/1 6/6/1
f 3/3/1 2/2/1 1/1/1
f 11/1/2 12/11/2 10/10/2
f 7/7/2 11/1/2 10/10/2
f 7/7/2 10/10/2 8/8/2
f 7/7/2 8/8/2 9/9/2
f 5/15/3 9/13/3 8/12/3
f 8/12/3 4/14/3 5/15/3
f 6/19/4 7/17/4 9/16/4
f 9/16/4 5/18/4 6/19/4
f 4/23/5 8/21/5 10/20/5
f 10/20/5 3/22/5 4/23/5
f 1/26/6 11/1/6 7/24/6
f 7/24/6 6/25/6 1/26/6
f 2/28/7 12/27/7 11/1/7
f 11/1/7 1/26/7 2/28/7
f 3/32/8 10/30/8 12/29/8
f 12/29/8 2/31/8 3/32/8

