# ProBuilder 4.2.3
# https://unity3d.com/unity/features/worldbuilding/probuilder
# 2020-09-01 PM 5:01:20

mtllib ./vest_motor_9.mtl
o vest_motor_9

g vest_motor_9
v -2.292388E-10 0.005 -1.121984E-09
v -0.0009576057 0.005000004 0.0283116
v -0.04282913 0.005000004 0.02535201
v -0.04217294 0.004999996 -0.007984765
v -0.04282913 3.72529E-09 0.02535201
v -0.04217294 -3.72529E-09 -0.007984764
v 0 0 0
v -0.0009576054 3.72529E-09 0.0283116

vt 0.1324608 0.4901047
vt 0.1334184 0.5184163
vt 0.1752899 0.5154567
vt 0.1746337 0.48212
vt 0.08963163 0.5154567
vt 0.09028782 0.48212
vt 0.1315031 0.5184163
vt 0.1586507 0.4901047
vt 0.1253075 0.4901047
vt 0.1586507 0.4951047
vt 0.1253075 0.4951047
vt 0.1753829 0.4901047
vt 0.1753829 0.4951047
vt 0.1324608 0.4951047
vt 0.104133 0.4901047
vt 0.104133 0.4951047
vt 0.1335017 0.4901047
vt 0.0915257 0.4901047
vt 0.1335017 0.4951047
vt 0.0915257 0.4951047

vn -1.828471E-08 1 -1.778324E-07
vn 1.828471E-08 -1 1.778324E-07
vn -0.9998063 -7.33129E-09 -0.01967978
vn 0.1860289 -1.830131E-07 -0.9825443
vn 0.9994285 5.340717E-08 0.03380445
vn -0.07050657 3.683187E-07 0.9975113

usemtl ProBuilderDefault
f 2/2/1 1/1/1 4/4/1 3/3/1
f 5/5/2 6/6/2 7/1/2 8/7/2
f 3/10/3 4/11/3 6/9/3 5/8/3
f 4/13/4 1/14/4 7/1/4 6/12/4
f 1/14/5 2/16/5 8/15/5 7/1/5
f 2/19/6 3/20/6 5/18/6 8/17/6

