# ProBuilder 4.2.3
# https://unity3d.com/unity/features/worldbuilding/probuilder
# 2020-09-01 PM 5:21:42

mtllib ./vest_motor_5.mtl
o vest_motor_5

g vest_motor_5
v -5.697816E-10 0.005 1.542032E-09
v -0.04494972 0.004999989 -0.01376073
v -0.04379681 0.004999972 -0.07403594
v 0.001969933 0.004999992 -0.06920426
v -0.04494972 -1.117587E-08 -0.01376073
v -0.04379681 -2.506967E-08 -0.07403594
v 0.001969923 -1.819026E-08 -0.06920426
v 0 0 0

vt 0.1286762 0.7436724
vt 0.1736259 0.7299117
vt 0.172473 0.6696365
vt 0.1267063 0.6744682
vt 0.08372647 0.7299117
vt 0.08487938 0.6696365
vt 0.1306461 0.6744682
vt 0.1157776 0.7436724
vt 0.05549136 0.7436724
vt 0.1157776 0.7486724
vt 0.05549136 0.7486724
vt 0.1800039 0.7436724
vt 0.1339828 0.7436724
vt 0.1800039 0.7486724
vt 0.1339828 0.7486724
vt 0.1979085 0.7436724
vt 0.1979085 0.7486724
vt 0.1286762 0.7486724
vt 0.08166731 0.7436724
vt 0.08166731 0.7486724

vn -2.117663E-07 1 -1.204175E-07
vn 1.462181E-07 -1 2.502526E-07
vn -0.9998171 7.1242E-09 -0.01912388
vn 0.1049884 0 -0.9944735
vn 0.9995951 -1.959129E-06 0.02845382
vn -0.2927262 -3.28255E-07 0.9561963

usemtl ProBuilderDefault
f 1/1/1 4/4/1 3/3/1 2/2/1
f 5/5/2 6/6/2 7/7/2 8/1/2
f 2/10/3 3/11/3 6/9/3 5/8/3
f 3/14/4 4/15/4 7/13/4 6/12/4
f 4/17/5 1/18/5 8/1/5 7/16/5
f 1/18/6 2/20/6 5/19/6 8/1/6

