# ProBuilder 4.2.3
# https://unity3d.com/unity/features/worldbuilding/probuilder
# 2020-09-01 PM 5:01:36

mtllib ./vest_motor_18.mtl
o vest_motor_18

g vest_motor_18
v 3.509632E-11 0.005 -5.406116E-10
v 0.00451081 0.005000008 0.002509054
v 0.003536625 0.005 0.06828213
v 0.0005340357 0.005000007 0.07025175
v -0.04604526 0.005000015 0.04603993
v -0.0433194 0.00499999 -0.004048228
v -0.04604526 1.490116E-08 0.04603993
v 0.003536625 0 0.06828213
v 0.0005340356 7.450581E-09 0.07025175
v -0.0433194 -1.024455E-08 -0.004048228
v 0 0 0
v 0.00451081 7.916242E-09 0.002509054

vt 0.3822438 0.02270758
vt 0.377733 0.02521664
vt 0.3787072 0.09098971
vt 0.3817098 0.09295933
vt 0.4282891 0.06874751
vt 0.4255632 0.01865935
vt 0.3361985 0.06874751
vt 0.3857804 0.09098971
vt 0.3827778 0.09295933
vt 0.3389244 0.01865935
vt 0.3867546 0.02521664
vt 0.3477485 0.02270758
vt 0.3441576 0.02270759
vt 0.3477485 0.02770758
vt 0.3441576 0.02770759
vt 0.4151185 0.02270759
vt 0.3626224 0.0227076
vt 0.4151185 0.02770759
vt 0.3626224 0.0277076
vt 0.4307178 0.0227076
vt 0.3805555 0.02270757
vt 0.4307178 0.0277076
vt 0.3805555 0.02770757
vt 0.4257519 0.02270757
vt 0.4257519 0.02770757
vt 0.3822438 0.02770758
vt 0.3770821 0.02270759
vt 0.3770821 0.02770759
vt 0.3798018 0.02270759
vt 0.3140215 0.02270758
vt 0.3798018 0.02770759
vt 0.3140215 0.02770758

vn -6.00291E-07 1 -9.240179E-07
vn -5.764323E-08 -1 9.2461E-07
vn 0.5484951 0 0.8361538
vn -0.4612115 5.369209E-09 0.8872902
vn -0.9985225 0 -0.05434095
vn 0.0930453 -9.272824E-08 -0.9956619
vn 0.4860942 -9.790082E-08 -0.8739065
vn 0.9998904 1.379259E-09 0.01480968

usemtl ProBuilderDefault
f 4/4/1 3/3/1 5/5/1
f 1/1/1 6/6/1 5/5/1
f 5/5/1 2/2/1 1/1/1
f 5/5/1 3/3/1 2/2/1
f 12/11/2 8/8/2 7/7/2
f 11/1/2 12/11/2 7/7/2
f 7/7/2 10/10/2 11/1/2
f 7/7/2 8/8/2 9/9/2
f 4/15/3 9/13/3 8/12/3
f 8/12/3 3/14/3 4/15/3
f 5/19/4 7/17/4 9/16/4
f 9/16/4 4/18/4 5/19/4
f 6/23/5 10/21/5 7/20/5
f 7/20/5 5/22/5 6/23/5
f 1/26/6 11/1/6 10/24/6
f 10/24/6 6/25/6 1/26/6
f 2/28/7 12/27/7 11/1/7
f 11/1/7 1/26/7 2/28/7
f 3/32/8 8/30/8 12/29/8
f 12/29/8 2/31/8 3/32/8

