# ProBuilder 4.2.3
# https://unity3d.com/unity/features/worldbuilding/probuilder
# 2020-09-01 PM 5:01:32

mtllib ./vest_motor_16.mtl
o vest_motor_16

g vest_motor_16
v 8.353973E-10 0.005 3.744714E-09
v -0.0002213149 0.004999981 0.03775607
v -0.05086287 0.004999994 0.01880795
v -0.05016913 0.005000011 -0.003730109
v -0.05086287 -5.587935E-09 0.01880795
v -0.05016913 1.117587E-08 -0.003730113
v 0 0 0
v -0.0002213157 -1.862645E-08 0.03775607

vt 0.8761331 0.2611369
vt 0.8763545 0.2988929
vt 0.926996 0.2799448
vt 0.9263023 0.2574068
vt 0.8252703 0.2799448
vt 0.825964 0.2574068
vt 0.8759118 0.2988929
vt 0.8964971 0.2611369
vt 0.8739483 0.2611369
vt 0.8964971 0.2661369
vt 0.8739483 0.2661369
vt 0.9264407 0.2611369
vt 0.9264407 0.2661369
vt 0.8761331 0.2661369
vt 0.8383764 0.2611369
vt 0.8383764 0.2661369
vt 0.8891569 0.2611369
vt 0.8350866 0.2611369
vt 0.8891569 0.2661369
vt 0.8350866 0.2661369

vn 1.198996E-07 1 6.213529E-07
vn -1.198996E-07 -1 -6.213529E-07
vn -0.9995266 2.292284E-08 -0.03076652
vn 0.0741461 7.430072E-07 -0.9972474
vn 0.9999828 -1.714666E-07 0.005861626
vn -0.3504348 -6.396775E-07 0.9365872

usemtl ProBuilderDefault
f 2/2/1 1/1/1 4/4/1 3/3/1
f 5/5/2 6/6/2 7/1/2 8/7/2
f 3/10/3 4/11/3 6/9/3 5/8/3
f 4/13/4 1/14/4 7/1/4 6/12/4
f 1/14/5 2/16/5 8/15/5 7/1/5
f 2/19/6 3/20/6 5/18/6 8/17/6

