# ProBuilder 4.2.3
# https://unity3d.com/unity/features/worldbuilding/probuilder
# 2020-09-01 PM 5:21:33

mtllib ./vest_motor_1.mtl
o vest_motor_1

g vest_motor_1
v -1.674505E-09 0.004999982 0.02729674
v 0.04762948 0.004999973 0.03231364
v 0.04782902 0.005000002 -0.02172512
v -0.0005302888 0.004999996 -0.01788515
v -0.0005302882 -3.72529E-09 -0.01788515
v 0.04782902 1.862645E-09 -0.02172511
v -1.008771E-09 -1.252456E-08 0.02729675
v 0.04762948 -2.608343E-08 0.03231364

vt 0.1286762 0.9583065
vt 0.08104669 0.9633234
vt 0.08084714 0.9092847
vt 0.1292064 0.9131246
vt 0.1281459 0.9131246
vt 0.1765052 0.9092847
vt 0.1763057 0.9633234
vt 0.1277891 0.9310098
vt 0.07927755 0.9310098
vt 0.1277891 0.9360098
vt 0.07927755 0.9360098
vt 0.155971 0.9310098
vt 0.110786 0.9310098
vt 0.155971 0.9360098
vt 0.110786 0.9360098
vt 0.1505777 0.9310098
vt 0.09653862 0.9310098
vt 0.1505777 0.9360098
vt 0.09653862 0.9360098
vt 0.1794285 0.9310097
vt 0.1315356 0.9310098
vt 0.1794285 0.9360097
vt 0.1315356 0.9360098

vn 2.414572E-08 1 4.225184E-07
vn 9.999287E-08 -1 -1.959257E-07
vn -0.07915578 -3.814966E-07 -0.9968623
vn -0.9999312 -1.243938E-07 0.01173591
vn 0.9999932 1.375577E-09 0.003692537
vn -0.1047522 5.848663E-07 0.9944984

usemtl ProBuilderDefault
f 1/1/1 2/2/1 3/3/1 4/4/1
f 7/1/2 5/5/2 6/6/2 8/7/2
f 4/10/3 3/11/3 6/9/3 5/8/3
f 1/14/4 4/15/4 5/13/4 7/12/4
f 3/18/5 2/19/5 8/17/5 6/16/5
f 2/22/6 1/23/6 7/21/6 8/20/6

